# xmcd
#
# Track frame offsets:
#	182
#	13302
#	28432
#	46702
#	58157
#	70630
#	87032
#	100802
#	114982
#	129162
#
# Disc length: 1897 seconds
#
# Revision: 4
# Processed by: cddbd v1.5.2PL0 Copyright (c) Steve Scherf et al.
# Submitted via: EZCDAudioConverter 6.0.2.1
#
DISCID=7b07670a
DTITLE=The Statler Brothers - 10th Anniversary
DYEAR=1980
DGENRE=Country
TTITLE0=Don't Forget Yourself
TTITLE1=The Kid's Last Fight
TTITLE2=How Are Things In Clay, Kentucky
TTITLE3=One Less Day To Go
TTITLE4=Nobody Wants To Be Country
TTITLE5=We Got Paid By Cash
TTITLE6=Old Cheerleaders Cry
TTITLE7='Til The End
TTITLE8=Nobody's Darlin' But Mine
TTITLE9=Charlotte's Web
EXTD=
EXTT0=
EXTT1=
EXTT2=
EXTT3=
EXTT4=
EXTT5=
EXTT6=
EXTT7=
EXTT8=
EXTT9=
PLAYORDER=
